<?xml version="1.0" encoding="UTF-8"?>
<svg version="1.1" xmlns="http://www.w3.org/2000/svg" width="192" height="192">
<path d="M0 0 C1.7015625 0.99 1.7015625 0.99 3.4375 2 C3.4375 2.66 3.4375 3.32 3.4375 4 C4.0975 4 4.7575 4 5.4375 4 C5.9325 4.99 5.9325 4.99 6.4375 6 C7.30375 5.236875 8.17 4.47375 9.0625 3.6875 C14.12100683 -0.46306971 18.5126791 -2.63800101 25.125 -2.42578125 C30.54859616 -1.42717993 34.71350226 2.10465267 38.4375 6 C40.43733534 5.20882096 40.43733534 5.20882096 42.4375 4 C42.7675 3.01 43.0975 2.02 43.4375 1 C48.6083393 -1.90859711 53.53745671 -3.21246844 59.4375 -2 C63.88118278 0.08178262 67.9585833 2.5210833 71.4375 6 C71.953125 5.236875 72.46875 4.47375 73 3.6875 C76.89811969 -0.61042684 81.16279203 -2.14204097 86.875 -2.4375 C91.82392555 -2.29294376 95.20269803 -0.46388478 99.4375 2 C99.4375 2.66 99.4375 3.32 99.4375 4 C100.0975 4 100.7575 4 101.4375 4 C105.03128942 9.39068413 105.89106243 12.53673535 105.4375 19 C106.241875 19 107.04625 19 107.875 19 C113.20178309 20.49523736 116.94546373 23.749693 120.4375 28 C123.87112812 35.11065581 123.87578542 41.61032438 123.85742188 49.41748047 C123.86477288 50.76203105 123.8733621 52.10657534 123.88308716 53.45111084 C123.90520357 57.08348057 123.90823884 60.71562279 123.90633965 64.34805059 C123.90621949 67.38957143 123.91480209 70.43104486 123.92311716 73.47255242 C123.94231569 80.65312087 123.94524804 87.83357308 123.93847656 95.01416016 C123.93183823 102.40108458 123.95469955 109.78750937 123.99179029 117.1743325 C124.02256241 123.53556072 124.03383923 129.89662883 124.02995348 136.25792992 C124.02789371 140.04883469 124.03324459 143.83935046 124.05784607 147.63018417 C124.08023583 151.19768088 124.07813577 154.76436944 124.05791855 158.33187103 C124.05292555 160.25027822 124.0724386 162.16870133 124.09292603 164.08700562 C124.00964688 172.7303784 122.76234263 179.56161942 116.56731415 185.91928291 C110.27633669 190.84019827 103.98819542 190.85418594 96.2578125 190.77636719 C94.96397644 190.7868811 93.67014038 190.79739502 92.33709717 190.80822754 C88.81199644 190.83541159 85.28795783 190.82504763 81.76284027 190.80595303 C78.05947685 190.79067392 74.35619934 190.80487468 70.65283203 190.81427002 C64.43570772 190.8251605 58.21901221 190.81086777 52.00195312 190.78222656 C44.83239691 190.74957701 37.66386469 190.76015587 30.49433327 190.793185 C24.3190267 190.82048614 18.1440269 190.82421967 11.96867943 190.80855298 C8.28902803 190.79923857 4.60985664 190.79784041 0.93023682 190.81777191 C-3.17472139 190.83845753 -7.27793768 190.80972405 -11.3828125 190.77636719 C-12.58931458 190.78851257 -13.79581665 190.80065796 -15.03887939 190.81317139 C-22.65519256 190.69881846 -28.11630003 189.58954215 -33.5625 184 C-39.11826694 176.73246816 -39.27700417 169.18675016 -39.19360352 160.33959961 C-39.19875297 158.99312908 -39.20604194 157.64666532 -39.21528625 156.30021667 C-39.23367686 152.67196313 -39.22094187 149.04445186 -39.20119596 145.41622996 C-39.18470839 141.60345264 -39.19363615 137.79071861 -39.19871521 133.97792053 C-39.20322442 127.57850401 -39.18743822 121.1793809 -39.15942383 114.7800293 C-39.12736334 107.39989635 -39.12739671 100.02029192 -39.1446386 92.6401214 C-39.16054534 85.51522304 -39.15374446 78.39051694 -39.13670158 71.26562691 C-39.12986043 68.24468374 -39.13083306 65.22389606 -39.13824654 62.20295525 C-39.14595236 58.64121592 -39.1336452 55.0800725 -39.10639763 51.51843452 C-39.09631583 49.60109948 -39.10565105 47.68369252 -39.11572266 45.76635742 C-39.02079924 37.11976181 -37.79554988 30.61793677 -31.9375 24.0625 C-29.13567157 20.44961598 -28.79061894 17.8829809 -28.0859375 13.46875 C-27.07868873 8.71814384 -24.51084274 3.92469833 -20.5625 1 C-13.62109741 -2.7483574 -7.21860759 -3.58379635 0 0 Z M-13.3125 11.125 C-15.06310691 13.47305928 -15.06310691 13.47305928 -15.5625 19 C-11.2725 19 -6.9825 19 -2.5625 19 C-3.06189309 13.47305928 -3.06189309 13.47305928 -4.8125 11.125 C-7.77728718 9.21906539 -10.34771282 9.21906539 -13.3125 11.125 Z M18.8125 12.25 C16.1352227 14.93255688 16.1352227 14.93255688 15.4375 19 C20.3875 19 25.3375 19 30.4375 19 C28.51358351 13.68588506 28.51358351 13.68588506 24.4375 10 C21.24090677 9.67460431 21.24090677 9.67460431 18.8125 12.25 Z M50.125 12.25 C48.08882252 15.03046892 48.08882252 15.03046892 48.4375 19 C52.7275 19 57.0175 19 61.4375 19 C60.93810691 13.47305928 60.93810691 13.47305928 59.1875 11.125 C55.48238419 8.74313983 53.21023578 9.24814897 50.125 12.25 Z M82.6875 11.125 C80.93689309 13.47305928 80.93689309 13.47305928 80.4375 19 C84.7275 19 89.0175 19 93.4375 19 C92.93810691 13.47305928 92.93810691 13.47305928 91.1875 11.125 C88.22271282 9.21906539 85.65228718 9.21906539 82.6875 11.125 Z " fill="#CAD5DC" transform="translate(53.5625,2)"/>
<path d="M0 0 C1.134375 0.66 2.26875 1.32 3.4375 2 C3.4375 2.66 3.4375 3.32 3.4375 4 C4.0975 4 4.7575 4 5.4375 4 C5.9325 4.99 5.9325 4.99 6.4375 6 C7.30375 5.236875 8.17 4.47375 9.0625 3.6875 C14.12100683 -0.46306971 18.5126791 -2.63800101 25.125 -2.42578125 C30.54859616 -1.42717993 34.71350226 2.10465267 38.4375 6 C40.43733534 5.20882096 40.43733534 5.20882096 42.4375 4 C42.7675 3.01 43.0975 2.02 43.4375 1 C48.6083393 -1.90859711 53.53745671 -3.21246844 59.4375 -2 C63.88118278 0.08178262 67.9585833 2.5210833 71.4375 6 C71.953125 5.236875 72.46875 4.47375 73 3.6875 C76.89811969 -0.61042684 81.16279203 -2.14204097 86.875 -2.4375 C91.82392555 -2.29294376 95.20269803 -0.46388478 99.4375 2 C99.4375 2.66 99.4375 3.32 99.4375 4 C100.0975 4 100.7575 4 101.4375 4 C105.03128942 9.39068413 105.89106243 12.53673535 105.4375 19 C101.4775 19 97.5175 19 93.4375 19 C92.963125 17.865625 92.48875 16.73125 92 15.5625 C90.80127917 12.24259834 90.80127917 12.24259834 89.4375 11 C87.02267587 10.49940084 87.02267587 10.49940084 84.4375 11 C82.46243835 13.60990289 81.4718299 15.89701029 80.4375 19 C79.7775 19 79.1175 19 78.4375 19 C79.4275 22.3 80.4175 25.6 81.4375 29 C82.345 28.896875 83.2525 28.79375 84.1875 28.6875 C87.4375 29 87.4375 29 89.875 31.0625 C91.91381034 34.89546344 91.58581346 36.86607156 90.4375 41 C89.3125 42.9375 89.3125 42.9375 87.4375 44 C84.1171875 44.38671875 84.1171875 44.38671875 80.4375 44 C77.890625 41.8046875 77.890625 41.8046875 75.6875 38.875 C74.95015625 37.92367187 74.2128125 36.97234375 73.453125 35.9921875 C69.37375402 29.93637709 68.06738816 26.15549557 68.4375 19 C66.1275 19 63.8175 19 61.4375 19 C60.963125 17.865625 60.48875 16.73125 60 15.5625 C58.80127917 12.24259834 58.80127917 12.24259834 57.4375 11 C55.02212162 10.58282721 55.02212162 10.58282721 52.4375 11 C50.01667355 13.42082645 49.03480356 15.65510004 48.4375 19 C47.7775 19 47.1175 19 46.4375 19 C47.4275 22.3 48.4175 25.6 49.4375 29 C50.365625 28.938125 51.29375 28.87625 52.25 28.8125 C55.4375 29 55.4375 29 57.109375 30.234375 C59.20681611 33.02273789 58.91024315 35.45389576 58.7890625 38.8359375 C58.4375 41 58.4375 41 56.75 43.5625 C53.8748947 45.34972762 52.77671423 45.58219729 49.4375 45 C47.28759039 42.99579658 45.56500716 41.1468457 43.75 38.875 C43.26466797 38.30523437 42.77933594 37.73546875 42.27929688 37.1484375 C37.54843403 31.4061488 36.13748186 26.50045358 36.4375 19 C34.4575 19 32.4775 19 30.4375 19 C29.880625 17.865625 29.32375 16.73125 28.75 15.5625 C27.24511399 12.94623174 26.73798908 12.14273232 23.9375 10.8125 C21.30916636 10.77922149 21.30916636 10.77922149 19.25 12.6875 C15.94902076 16.83599373 15.94902076 16.83599373 15.75 22 C16.54979377 25.51096485 16.54979377 25.51096485 17.4375 29 C18.365625 28.938125 19.29375 28.87625 20.25 28.8125 C23.4375 29 23.4375 29 25.11328125 30.23046875 C26.78101944 32.45903925 26.84011081 33.73891873 26.8125 36.5 C26.82410156 37.66015625 26.82410156 37.66015625 26.8359375 38.84375 C26.4375 41 26.4375 41 25.3515625 42.78125 C22.2556532 44.75252286 20.01170463 44.50286429 16.4375 44 C13.890625 41.8046875 13.890625 41.8046875 11.6875 38.875 C10.95015625 37.92367187 10.2128125 36.97234375 9.453125 35.9921875 C5.37375402 29.93637709 4.06738816 26.15549557 4.4375 19 C2.1275 19 -0.1825 19 -2.5625 19 C-3.036875 17.865625 -3.51125 16.73125 -4 15.5625 C-5.19872083 12.24259834 -5.19872083 12.24259834 -6.5625 11 C-8.97732413 10.49940084 -8.97732413 10.49940084 -11.5625 11 C-15.09019424 14.90566148 -15.52604223 19.90502633 -15.5625 25 C-15.12704929 27.19872977 -15.12704929 27.19872977 -14.5625 29 C-13.655 28.896875 -12.7475 28.79375 -11.8125 28.6875 C-8.5625 29 -8.5625 29 -6.125 31.0625 C-4.08618966 34.89546344 -4.41418654 36.86607156 -5.5625 41 C-6.6875 42.9375 -6.6875 42.9375 -8.5625 44 C-12.65521757 44.44193664 -14.74228154 44.64556626 -18.0390625 42.05078125 C-23.84528722 34.65048393 -29.88751525 26.58750416 -29.40234375 16.75390625 C-28.06553475 10.34202595 -25.72250877 5.15228941 -20.5625 1 C-13.75378566 -2.98245556 -7.05784724 -3.50398423 0 0 Z " fill="#65747E" transform="translate(53.5625,2)"/>
<path d="M0 0 C10.34548398 -0.51655676 15.71046788 -0.32779901 23.75 6.25 C29.72695599 13.55516843 29.44115732 21.38935138 29.41992188 30.41748047 C29.42727288 31.76203105 29.4358621 33.10657534 29.44558716 34.45111084 C29.46770357 38.08348057 29.47073884 41.71562279 29.46883965 45.34805059 C29.46871949 48.38957143 29.47730209 51.43104486 29.48561716 54.47255242 C29.50481569 61.65312087 29.50774804 68.83357308 29.50097656 76.01416016 C29.49433823 83.40108458 29.51719955 90.78750937 29.55429029 98.1743325 C29.58506241 104.53556072 29.59633923 110.89662883 29.59245348 117.25792992 C29.59039371 121.04883469 29.59574459 124.83935046 29.62034607 128.63018417 C29.64273583 132.19768088 29.64063577 135.76436944 29.62041855 139.33187103 C29.61542555 141.25027822 29.6349386 143.16870133 29.65542603 145.08700562 C29.57356491 153.5832039 28.16964987 160.75357517 22.03731537 166.99882317 C15.61043881 172.46405026 7.93650183 171.5646523 0 171 C3 169 3 169 5.875 167.75 C10.67554452 165.06169507 13.92326285 161.14454556 16 156 C16.30546929 153.25684033 16.30546929 153.25684033 16.26742554 150.21318054 C16.27595551 149.03140228 16.28448547 147.84962402 16.29327393 146.6320343 C16.29236755 145.33895859 16.29146118 144.04588287 16.29052734 142.71362305 C16.29651311 141.33524207 16.30331877 139.95686444 16.31088257 138.57849121 C16.32854661 134.83662393 16.33323816 131.09484813 16.33451414 127.35294318 C16.33593626 125.0137517 16.34020705 122.67458343 16.34550858 120.33539772 C16.36401136 112.17060496 16.37217903 104.00587749 16.37060547 95.84106445 C16.36940453 88.23725524 16.39049665 80.6337301 16.4220928 73.02999276 C16.44827153 66.49650989 16.45897207 59.9631197 16.45769465 53.4295848 C16.45718541 49.52977978 16.46284708 45.63022713 16.48405075 41.73047447 C16.50345987 38.06055268 16.50353982 34.39112326 16.48901749 30.72118378 C16.48593981 28.73894865 16.50258783 26.75671333 16.51989746 24.77455139 C16.47189572 17.96400856 16.16858226 13.4931934 12 8 C8.38824848 4.48586338 4.62353528 2.81315109 0 1 C0 0.67 0 0.34 0 0 Z " fill="#57ADEC" transform="translate(148,21)"/>
<path d="M0 0 C0.93375961 -0.00845947 1.86751923 -0.01691895 2.82957458 -0.02563477 C4.36322411 -0.01652573 4.36322411 -0.01652573 5.92785645 -0.00723267 C7.00612198 -0.01248962 8.08438751 -0.01774658 9.19532776 -0.02316284 C12.7684263 -0.03639354 16.3410813 -0.02761361 19.91418457 -0.01748657 C22.39135829 -0.01950642 24.86853144 -0.0224171 27.34570312 -0.02618408 C33.20697525 -0.03117921 39.06808572 -0.02066222 44.92933416 -0.00473177 C49.60615315 0.00653243 54.28278278 0.00254888 58.95959473 -0.01016235 C65.40159103 -0.0275222 71.84340396 -0.03029259 78.28541565 -0.02049637 C80.74467512 -0.01849113 83.20394234 -0.02096492 85.66319275 -0.02793503 C89.09667796 -0.03553007 92.52957169 -0.02397201 95.9630127 -0.00723267 C96.98544571 -0.01330536 98.00787872 -0.01937805 99.06129456 -0.02563477 C100.46193398 -0.01294556 100.46193398 -0.01294556 101.89086914 0 C103.10870464 0.00169662 103.10870464 0.00169662 104.35114288 0.00342751 C106.99186624 0.47945237 107.90491863 1.2015951 109.44543457 3.38095093 C109.25793457 7.00595093 109.25793457 7.00595093 108.44543457 10.38095093 C106.07970124 11.56381759 104.65016662 11.51173467 102.01112366 11.52139282 C101.07873871 11.52710297 100.14635376 11.53281311 99.18571472 11.53869629 C98.15968643 11.53981415 97.13365814 11.54093201 96.07653809 11.54208374 C94.45935883 11.5495311 94.45935883 11.5495311 92.80950928 11.55712891 C89.23111339 11.57177448 85.6527618 11.57855596 82.07434082 11.58407593 C79.59573871 11.58982469 77.11713662 11.59558245 74.63853455 11.60134888 C69.43736564 11.6118652 64.23621223 11.61770397 59.03503418 11.6211853 C53.68536254 11.62495469 48.33582829 11.63905727 42.98620605 11.66220093 C36.53890903 11.68966756 30.09174594 11.70258969 23.64439201 11.70452118 C21.18233057 11.70755607 18.72027015 11.71561251 16.25824165 11.72870636 C12.81991038 11.74568942 9.38208134 11.74390561 5.94372559 11.73739624 C4.4077195 11.75121841 4.4077195 11.75121841 2.84068298 11.76531982 C1.43787582 11.75696609 1.43787582 11.75696609 0.00672913 11.7484436 C-0.80646003 11.74991016 -1.61964918 11.75137672 -2.45748043 11.75288773 C-5.07827414 11.2880665 -5.96258206 10.48063477 -7.55456543 8.38095093 C-7.92956543 5.88095093 -7.92956543 5.88095093 -7.55456543 3.38095093 C-5.28792065 0.39400299 -3.67668078 0.00512213 0 0 Z " fill="#9BABB6" transform="translate(39.5545654296875,100.61904907226563)"/>
<path d="M0 0 C1.39857742 -0.00845947 1.39857742 -0.00845947 2.82540894 -0.01708984 C4.36445137 -0.01101715 4.36445137 -0.01101715 5.93458557 -0.00482178 C7.01270508 -0.00832642 8.09082458 -0.01183105 9.20161438 -0.01544189 C12.78006858 -0.02427386 16.35832648 -0.01840441 19.93678284 -0.01165771 C22.41538532 -0.01300404 24.89398754 -0.0149443 27.37258911 -0.01745605 C33.24094335 -0.02078822 39.10922591 -0.0137695 44.97756964 -0.00315452 C49.66004803 0.00435147 54.34244234 0.00170268 59.0249176 -0.0067749 C65.47221382 -0.01834858 71.9194286 -0.02019448 78.36673164 -0.01366425 C80.82878196 -0.01232727 83.29083571 -0.01397712 85.752882 -0.01862335 C89.19114806 -0.02368684 92.62915162 -0.01598033 96.06739807 -0.00482178 C97.09140213 -0.00887024 98.11540619 -0.0129187 99.17044067 -0.01708984 C100.57324783 -0.00863037 100.57324783 -0.00863037 102.00439453 0 C103.22417826 0.00113108 103.22417826 0.00113108 104.46860409 0.002285 C106.56568909 0.25396729 106.56568909 0.25396729 109.56568909 2.25396729 C110.00318909 5.19146729 110.00318909 5.19146729 109.56568909 8.25396729 C106.75531817 10.9505285 104.77702122 11.63001125 100.92883301 11.64164734 C100.00211288 11.65155197 99.07539276 11.6614566 98.12059021 11.67166138 C97.11110321 11.66715973 96.10161621 11.66265808 95.0615387 11.65802002 C93.99288071 11.66488327 92.92422272 11.67174652 91.82318115 11.67881775 C88.2879969 11.69713148 84.75325438 11.69324228 81.21803284 11.68756104 C78.76470799 11.69211996 76.31138443 11.69742467 73.85806274 11.70344543 C68.71587435 11.71238506 63.57384119 11.70994283 58.43165588 11.70001221 C51.83139976 11.68850978 45.23167761 11.70874984 38.63149166 11.73792934 C33.56582214 11.75624331 28.50028178 11.75600866 23.43458748 11.75029182 C21.0004406 11.75013808 18.56628524 11.75622561 16.13216972 11.7685833 C12.73458334 11.78340387 9.33799922 11.77288204 5.94044495 11.75567627 C4.4231781 11.77017822 4.4231781 11.77017822 2.8752594 11.78497314 C1.48940895 11.77022194 1.48940895 11.77022194 0.07556152 11.75517273 C-0.72765565 11.75496345 -1.53087282 11.75475416 -2.35842991 11.75453854 C-4.43431091 11.25396729 -4.43431091 11.25396729 -6.22789669 9.38670444 C-7.43431091 7.25396729 -7.43431091 7.25396729 -7.24681091 4.62896729 C-5.80706878 0.42049029 -4.14963019 0.00384964 0 0 Z " fill="#9AABB6" transform="translate(39.43431091308594,127.74603271484375)"/>
<path d="M0 0 C0.95065842 -0.00563965 1.90131683 -0.0112793 2.88078308 -0.01708984 C3.92708389 -0.01304138 4.9733847 -0.00899292 6.0513916 -0.00482178 C7.15062454 -0.00832642 8.24985748 -0.01183105 9.38240051 -0.01544189 C13.03059123 -0.02427348 16.6785894 -0.01840495 20.32678223 -0.01165771 C22.85262082 -0.01300395 25.37845917 -0.01494414 27.90429688 -0.01745605 C33.2038442 -0.02040926 38.50332196 -0.01629298 43.80285645 -0.0067749 C49.93429767 0.00410996 56.0656059 0.00058448 62.1970439 -0.01042771 C68.0895699 -0.02058819 73.98205449 -0.01952431 79.87458801 -0.01366425 C82.38491331 -0.01232628 84.89524199 -0.01398058 87.40556335 -0.01862335 C90.90869246 -0.02367981 94.41156309 -0.0159906 97.91467285 -0.00482178 C99.48412407 -0.01089447 99.48412407 -0.01089447 101.08528137 -0.01708984 C102.03593979 -0.0114502 102.98659821 -0.00581055 103.96606445 0 C104.79492409 0.00075405 105.62378372 0.0015081 106.47776031 0.002285 C108.48303223 0.25396729 108.48303223 0.25396729 110.48303223 2.25396729 C109.90610915 8.83089036 109.90610915 8.83089036 108.48303223 10.25396729 C107.02027526 10.35610543 105.55262812 10.38915264 104.08631897 10.39440918 C102.66239334 10.4029744 102.66239334 10.4029744 101.20970154 10.41171265 C99.63485741 10.41338943 99.63485741 10.41338943 98.02819824 10.4151001 C96.92911133 10.420065 95.83002441 10.42502991 94.69763184 10.43014526 C91.04406113 10.44480923 87.39053383 10.45157547 83.73693848 10.45709229 C81.209671 10.46283968 78.68240354 10.46859745 76.15513611 10.47436523 C71.52871956 10.48354018 66.90231615 10.48983597 62.27589279 10.49286199 C55.45796454 10.49734539 48.64023651 10.51490418 41.82236916 10.54386258 C35.92505163 10.56804524 30.02778425 10.5758044 24.13041496 10.57753754 C21.61728767 10.58057501 19.10416144 10.58864003 16.59106636 10.60172272 C13.08297469 10.61868319 9.5753762 10.61692753 6.06726074 10.6104126 C5.01938889 10.61962738 3.97151703 10.62884216 2.89189148 10.63833618 C1.46373611 10.62998245 1.46373611 10.62998245 0.00672913 10.62145996 C-1.23850855 10.6236598 -1.23850855 10.6236598 -2.50890255 10.62590408 C-3.17156407 10.50316494 -3.8342256 10.3804258 -4.51696777 10.25396729 C-6.66612562 7.03023051 -6.8998358 5.98693055 -6.51696777 2.25396729 C-4.05417943 -0.20882105 -3.38554753 0.00307999 0 0 Z " fill="#99AAB5" transform="translate(38.5169677734375,74.74603271484375)"/>
<path d="M0 0 C1.01974411 -0.00525696 1.01974411 -0.00525696 2.06008911 -0.01062012 C4.31229801 -0.01943875 6.56419403 -0.01358799 8.81640625 -0.00683594 C10.37817444 -0.00818255 11.93994223 -0.01012306 13.50170898 -0.01263428 C16.77689602 -0.01558571 20.05197406 -0.01128733 23.32714844 -0.00195312 C27.53074316 0.00944149 31.7340825 0.00288211 35.93766785 -0.00909805 C39.16322767 -0.01631617 42.3887267 -0.01402896 45.61428833 -0.00884247 C47.16447988 -0.00750583 48.7146769 -0.00915418 50.26486206 -0.01380157 C52.42932818 -0.01886609 54.59337752 -0.01115804 56.7578125 0 C58.60741577 0.00238678 58.60741577 0.00238678 60.49438477 0.00482178 C63.37890625 0.25878906 63.37890625 0.25878906 65.37890625 2.25878906 C65.62890625 5.25878906 65.62890625 5.25878906 65.37890625 8.25878906 C62.5716493 11.06604601 60.79833835 10.51850013 56.86547852 10.53344727 C56.19700897 10.5385582 55.52853943 10.54366913 54.83981323 10.54893494 C52.62488917 10.56286178 50.4102752 10.56187186 48.1953125 10.55957031 C46.65835962 10.56345568 45.12140781 10.56779002 43.5844574 10.57255554 C40.36055015 10.58002448 37.1367524 10.57972173 33.9128418 10.57446289 C29.77876201 10.56866859 25.6451303 10.58559465 21.51112461 10.60880756 C18.33612949 10.62353084 15.16124261 10.62441853 11.98621941 10.62129784 C10.46196544 10.6218118 8.93770552 10.62706367 7.41348457 10.63710976 C5.28260214 10.64942959 3.15259663 10.64271025 1.02172852 10.63110352 C-0.19135483 10.63173294 -1.40443817 10.63236237 -2.65428162 10.63301086 C-5.62109375 10.25878906 -5.62109375 10.25878906 -7.51673889 8.89567566 C-9.07740002 6.58244703 -8.97067983 4.9855605 -8.62109375 2.25878906 C-5.79443784 -0.56786685 -3.95947451 0.00510942 0 0 Z " fill="#99AAB5" transform="translate(40.62109375,154.7412109375)"/>
<path d="M0 0 C2.94563014 0.3184465 4.61076606 0.66266392 6.875 2.625 C8.51175762 6.0803772 7.92777204 8.35518125 7 12 C5.875 13.9375 5.875 13.9375 4 15 C0.3125 15.1875 0.3125 15.1875 -3 15 C-3.66 13.68 -4.32 12.36 -5 11 C-2.36 11 0.28 11 3 11 C3.35606813 6.03448675 3.35606813 6.03448675 1.5 1.5625 C1.005 1.046875 0.51 0.53125 0 0 Z " fill="#3A4146" transform="translate(137,31)"/>
<path d="M0 0 C2.94563014 0.3184465 4.61076606 0.66266392 6.875 2.625 C8.51175762 6.0803772 7.92777204 8.35518125 7 12 C5.875 13.9375 5.875 13.9375 4 15 C0.3125 15.1875 0.3125 15.1875 -3 15 C-3.66 13.68 -4.32 12.36 -5 11 C-2.36 11 0.28 11 3 11 C3.35606813 6.03448675 3.35606813 6.03448675 1.5 1.5625 C1.005 1.046875 0.51 0.53125 0 0 Z " fill="#3A4146" transform="translate(41,31)"/>
<path d="M0 0 C4.75 0.75 4.75 0.75 7 3 C7.30078125 5.05859375 7.30078125 5.05859375 7.3125 7.4375 C7.32925781 8.21996094 7.34601563 9.00242187 7.36328125 9.80859375 C6.91223873 12.52939865 6.22656877 13.40378403 4 15 C0.3125 15.1875 0.3125 15.1875 -3 15 C-3.66 13.68 -4.32 12.36 -5 11 C-2.36 11 0.28 11 3 11 C3.35606813 6.03448675 3.35606813 6.03448675 1.5 1.5625 C1.005 1.046875 0.51 0.53125 0 0 Z " fill="#343A3F" transform="translate(73,31)"/>
<path d="M0 0 C4.75 0.75 4.75 0.75 7 3 C7.30078125 5.05859375 7.30078125 5.05859375 7.3125 7.4375 C7.32925781 8.21996094 7.34601563 9.00242187 7.36328125 9.80859375 C6.9161161 12.50600935 6.17279961 13.38327233 4 15 C1.3125 15.1875 1.3125 15.1875 -1 15 C-1.33 14.34 -1.66 13.68 -2 13 C-0.35 12.34 1.3 11.68 3 11 C3.35606813 6.03448675 3.35606813 6.03448675 1.5 1.5625 C1.005 1.046875 0.51 0.53125 0 0 Z " fill="#2D3438" transform="translate(105,31)"/>
<path d="M0 0 C2.375 0.25 2.375 0.25 5 1 C6.3125 3.0625 6.3125 3.0625 7 5 C6.34 5 5.68 5 5 5 C5 6.65 5 8.3 5 10 C4.67 10 4.34 10 4 10 C3.566875 8.3603125 3.566875 8.3603125 3.125 6.6875 C2.18106796 2.95986155 2.18106796 2.95986155 0 0 Z " fill="#3A4146" transform="translate(105,31)"/>
<path d="M0 0 C2.31 0.33 4.62 0.66 7 1 C7 1.99 7 2.98 7 4 C5.35 4 3.7 4 2 4 C1.34 2.68 0.68 1.36 0 0 Z " fill="#3C4348" transform="translate(68,42)"/>
<path d="M0 0 C2.31 0.33 4.62 0.66 7 1 C6.01 1.66 5.02 2.32 4 3 C5.32 3.66 6.64 4.32 8 5 C3.48279689 5.36625971 3.48279689 5.36625971 1.1875 3.625 C0 2 0 2 0 0 Z " fill="#586066" transform="translate(100,42)"/>
</svg>
